<svg xmlns="http://www.w3.org/2000/svg" width="16" height="17" viewBox="0 0 16 17" fill="none">
<g clip-path="url(#clip0_1093_7315)">
<path d="M13.3333 6.08203H7.33333C6.59695 6.08203 6 6.67898 6 7.41536V13.4154C6 14.1517 6.59695 14.7487 7.33333 14.7487H13.3333C14.0697 14.7487 14.6667 14.1517 14.6667 13.4154V7.41536C14.6667 6.67898 14.0697 6.08203 13.3333 6.08203Z" stroke="#F89A1B" stroke-linecap="round" stroke-linejoin="round"/>
<path d="M3.33203 10.0817H2.66536C2.31174 10.0817 1.9726 9.94123 1.72256 9.69118C1.47251 9.44113 1.33203 9.10199 1.33203 8.74837V2.74837C1.33203 2.39475 1.47251 2.05561 1.72256 1.80556C1.9726 1.55551 2.31174 1.41504 2.66536 1.41504H8.66536C9.01899 1.41504 9.35812 1.55551 9.60817 1.80556C9.85822 2.05561 9.9987 2.39475 9.9987 2.74837V3.41504" stroke="#F89A1B" stroke-linecap="round" stroke-linejoin="round"/>
</g>
<defs>
<clipPath id="clip0_1093_7315">
<rect width="16" height="16" fill="white" transform="translate(0 0.0820312)"/>
</clipPath>
</defs>
</svg>