<svg width="17" height="16" viewBox="0 0 17 16" fill="none" xmlns="http://www.w3.org/2000/svg">
<path d="M14.0716 6H8.07161C7.33523 6 6.73828 6.59695 6.73828 7.33333V13.3333C6.73828 14.0697 7.33523 14.6667 8.07161 14.6667H14.0716C14.808 14.6667 15.4049 14.0697 15.4049 13.3333V7.33333C15.4049 6.59695 14.808 6 14.0716 6Z" stroke="white" stroke-linecap="round" stroke-linejoin="round"/>
<path d="M4.07031 9.99967H3.40365C3.05002 9.99967 2.71089 9.8592 2.46084 9.60915C2.21079 9.3591 2.07031 9.01996 2.07031 8.66634V2.66634C2.07031 2.31272 2.21079 1.97358 2.46084 1.72353C2.71089 1.47348 3.05002 1.33301 3.40365 1.33301H9.40365C9.75727 1.33301 10.0964 1.47348 10.3465 1.72353C10.5965 1.97358 10.737 2.31272 10.737 2.66634V3.33301" stroke="white" stroke-linecap="round" stroke-linejoin="round"/>
</svg>
