<svg width="38" height="35" viewBox="0 0 38 35" fill="none" xmlns="http://www.w3.org/2000/svg">
<path id="dumbell" d="M3.85926 12.3728L4.06175 12.2662C5.09362 11.7954 6.36716 12.2186 6.99177 13.2707L10.2637 18.7829L23.5043 10.9236L20.2333 5.41303C19.5678 4.29196 19.8828 2.86277 20.9447 2.23225L23.0634 0.974604L23.2664 0.868879C24.2983 0.398346 25.572 0.821315 26.1965 1.87339L27.1834 3.53612L27.9921 3.05609C29.0176 2.44739 30.3751 2.84089 31.0182 3.92405L32.1328 5.80176L32.6669 5.48473C32.6682 5.48383 32.6693 5.4822 32.6706 5.4814C33.6014 4.92911 34.8306 5.28639 35.4132 6.2678L36.7925 8.59142C37.3751 9.57299 37.0989 10.8237 36.1694 11.3757L35.6311 11.6952L36.7457 13.5729C37.3895 14.6575 37.0844 16.0372 36.0589 16.646L35.2502 17.126L36.2372 18.7887C36.9032 19.9109 36.5881 21.3398 35.5262 21.9703L33.4075 23.228C32.3454 23.8583 30.9401 23.4505 30.274 22.3284L27.0025 16.817L13.762 24.6764L17.0335 30.1878C17.6996 31.31 17.3846 32.7389 16.3225 33.3694L14.2047 34.6265C13.1426 35.257 11.7373 34.8491 11.0712 33.7269L10.0842 32.0642L9.27465 32.5447C8.24911 33.1534 6.89109 32.7593 6.24802 31.6759L5.13344 29.7982L4.596 30.1172C3.66517 30.6697 2.43526 30.3129 1.85252 29.3313L0.473253 27.0077L0.373981 26.8213C-0.0725297 25.8729 0.225485 24.7404 1.09723 24.2229L1.63468 23.9039L0.520094 22.0262C-0.123653 20.9417 0.181448 19.5619 1.2069 18.9531L2.01643 18.4726L1.02945 16.8099C0.364074 15.6888 0.679314 14.2604 1.74138 13.6299L3.85926 12.3728ZM2.47993 14.878C2.0728 15.1199 1.94614 15.6717 2.2068 16.111L12.25 33.0306C12.5102 33.4685 13.0555 33.622 13.4627 33.3805L15.5815 32.1228C15.9886 31.881 16.1156 31.3299 15.8551 30.8906L5.8119 13.9711C5.55173 13.533 5.00597 13.3788 4.59865 13.6203L2.47993 14.878ZM21.6845 3.47845C21.2772 3.72034 21.1506 4.27215 21.4113 4.7115L31.4545 21.631C31.7147 22.069 32.26 22.2225 32.6673 21.9809L34.786 20.7233C35.1931 20.4814 35.3201 19.9304 35.0596 19.4911L25.0164 2.57156C24.7563 2.13345 24.2105 1.9793 23.8032 2.22081L21.6845 3.47845ZM34.51 15.8789L35.3186 15.3989C35.6905 15.1782 35.8058 14.6759 35.5681 14.2753L29.8387 4.62307C29.6009 4.22251 29.1032 4.083 28.7323 4.30314L27.9237 4.78316L34.51 15.8789ZM1.94812 20.2019C1.57632 20.4227 1.46136 20.9258 1.69912 21.3263L7.42905 30.9794C7.66535 31.3775 8.15809 31.5169 8.5282 31.3025C8.53018 31.3008 8.53214 31.299 8.53442 31.2977L9.34395 30.8171L2.75765 19.7213L1.94812 20.2019ZM1.83945 25.4733C1.56441 25.6366 1.4772 26.011 1.65461 26.3099L3.03388 28.6335C3.21139 28.9321 3.58185 29.035 3.85676 28.8718L4.39421 28.5528L2.3769 25.1543L1.83945 25.4733ZM34.8922 10.4485L35.4305 10.129C35.7055 9.96572 35.7922 9.5905 35.6148 9.29162L34.2361 6.96883C34.0586 6.66995 33.6877 6.56639 33.4127 6.72963L32.8744 7.04915L34.8922 10.4485ZM13.0228 23.431L26.2633 15.5716L24.246 12.1731L11.0055 20.0325L13.0228 23.431Z" fill="#219DF6" stroke="#219DF6" stroke-width="0.1" stroke-linejoin="round"/>
</svg>
