<svg width="15" height="20" viewBox="0 0 15 20" fill="none" xmlns="http://www.w3.org/2000/svg">
<g id="fire">
<path id="Vector" d="M1.43151 15.5127C1.43592 15.5226 1.43986 15.5313 1.44329 15.5387C2.3581 17.6311 4.66968 19 7.2402 19C8.909 19 10.4471 18.428 11.5774 17.4702C14.0096 15.4185 14.1973 12.4498 13.8834 10.2212C13.7238 9.08886 13.4283 8.0817 13.1753 7.36123C13.0482 6.99937 12.9303 6.70571 12.8431 6.49991C12.7994 6.39692 12.7632 6.31565 12.7372 6.25856C12.7242 6.23001 12.7138 6.20748 12.7061 6.19127L12.6969 6.17174L12.694 6.16559L12.6929 6.16344L12.6925 6.16259C12.6924 6.16223 12.6922 6.1619 11.7919 6.59722L12.6922 6.1619C12.4863 5.73616 12.0104 5.51283 11.5514 5.62658C11.5205 5.63422 11.4903 5.64325 11.4608 5.65358C11.4336 4.41709 11.002 3.43181 10.45 2.69354C10.0348 2.1384 9.57015 1.74568 9.21158 1.49169C9.03107 1.36383 8.87368 1.26845 8.75704 1.20298C8.69859 1.17018 8.64999 1.14466 8.61338 1.12615C8.59506 1.11688 8.57971 1.10935 8.56758 1.10351L8.55182 1.09602L8.54581 1.09321L8.54328 1.09204L8.54213 1.09151C8.5416 1.09126 8.54107 1.09102 8.12422 2C7.21541 2.4172 7.21516 2.41665 7.21491 2.41611L7.21443 2.41506L7.21356 2.41315L7.21215 2.41001L7.21056 2.40641C7.21019 2.40557 7.21032 2.40584 7.21089 2.40721C7.21114 2.40781 7.21147 2.40862 7.21189 2.40964C7.21463 2.41633 7.22079 2.43181 7.22913 2.45531C7.24591 2.50254 7.27096 2.58061 7.29492 2.68361C7.34325 2.89134 7.38418 3.18759 7.35254 3.53125C7.29343 4.17324 6.97194 5.1163 5.62595 6.02047L5.62588 6.02052C3.32558 7.56604 2.08569 9.21411 1.48307 10.7483C0.883943 12.2736 0.947242 13.6033 1.1175 14.4708C1.15458 14.6742 1.20479 14.8725 1.26693 15.0657C1.26997 15.0765 1.27321 15.0874 1.27664 15.0982C1.31896 15.2315 1.35918 15.3388 1.39091 15.4171C1.40679 15.4562 1.42059 15.4882 1.43151 15.5127Z" fill="#FF1469" stroke="#121420" stroke-width="2" stroke-linejoin="round"/>
<path id="Vector_2" d="M8.49107 8.63281C8.49107 8.63281 6.9128 12.112 8.89732 12.99C11.1269 13.9778 11.64 10.5734 11.64 10.5734C11.64 10.5734 12.7891 17.6519 7.22559 17.6519C1.66207 17.6519 2.79976 11.4207 5.51286 10.2073C5.51286 10.2073 5.16287 11.1386 5.99445 11.1386C6.82602 11.1386 8.49202 8.63281 8.49202 8.63281H8.49107Z" fill="#FF70AC"/>
<path id="Vector_3" d="M8.18356 15.4593C7.08115 14.8674 7.31098 13.8263 7.51601 12.8242C7.32528 13.1135 7.1193 13.3873 6.89138 13.6263C6.42124 14.1207 5.6383 14.57 5.00794 14.1392C4.7333 13.9515 4.58453 13.655 4.50442 13.3278C3.57653 14.9854 3.93987 17.4799 7.28046 17.4799C10.2825 17.4799 10.8757 15.1916 10.9367 13.6581C10.3893 14.5802 9.83335 15.767 8.71569 15.6357C8.53068 15.6141 8.35044 15.5495 8.18356 15.4603V15.4593Z" fill="#FFC0C4"/>
</g>
</svg>
