<svg width="157" height="19" viewBox="0 0 157 19" fill="none" xmlns="http://www.w3.org/2000/svg">
<path d="M151.294 1.08545C153.147 1.08545 154.554 1.50004 155.513 2.32922C156.472 3.1584 156.952 4.26397 156.952 5.64594C156.952 6.0524 156.919 6.41822 156.854 6.74338C156.643 7.91399 156.139 8.9464 155.342 9.84062C154.546 10.7186 153.513 11.3527 152.245 11.7429L154.83 18.3519H148.88L146.709 12.1574L145.612 18.3519H140.198L143.246 1.08545H151.294ZM147.343 8.54807H149.489C150.009 8.54807 150.416 8.43426 150.709 8.20665C151.018 7.96277 151.221 7.58882 151.318 7.08481C151.335 7.00352 151.343 6.89784 151.343 6.76777C151.343 6.41009 151.229 6.13369 151.001 5.93859C150.774 5.72723 150.44 5.62155 150.001 5.62155H147.855L147.343 8.54807Z" fill="black"/>
<path d="M129.44 18.5223C127.977 18.5223 126.693 18.2215 125.587 17.62C124.482 17.0184 123.628 16.173 123.026 15.0836C122.425 13.9781 122.124 12.718 122.124 11.3036C122.124 9.23874 122.547 7.41779 123.392 5.84073C124.254 4.2474 125.449 3.01176 126.977 2.1338C128.522 1.23959 130.294 0.79248 132.294 0.79248C133.79 0.79248 135.09 1.09326 136.196 1.69482C137.318 2.28013 138.179 3.11744 138.781 4.20675C139.382 5.27981 139.683 6.52358 139.683 7.93806C139.683 9.98663 139.252 11.8157 138.391 13.4253C137.545 15.0349 136.342 16.2868 134.781 17.181C133.237 18.0752 131.456 18.5223 129.44 18.5223ZM130.27 13.4741C131.115 13.4741 131.847 13.2546 132.465 12.8156C133.099 12.3604 133.578 11.7669 133.903 11.0353C134.229 10.2874 134.391 9.48261 134.391 8.62092C134.391 7.7267 134.147 7.03572 133.66 6.54797C133.188 6.04396 132.505 5.79195 131.611 5.79195C130.766 5.79195 130.026 6.01144 129.392 6.45042C128.758 6.88939 128.27 7.48283 127.928 8.23072C127.603 8.96235 127.441 9.75901 127.441 10.6207C127.441 11.5149 127.676 12.214 128.148 12.718C128.636 13.2221 129.343 13.4741 130.27 13.4741Z" fill="black"/>
<path d="M122.558 1.08545L121.802 5.37768H117.217L114.925 18.3519H109.511L111.803 5.37768H107.267L108.023 1.08545H122.558Z" fill="black"/>
<path d="M99.6505 15.7424H93.895L92.5781 18.3519H86.8958L96.2606 1.08545H102.504L105.747 18.3519H100.041L99.6505 15.7424ZM99.0652 11.6697L98.358 6.86532L95.9436 11.6697H99.0652Z" fill="black"/>
<path d="M79.1625 14.0946H86.5103L85.7786 18.1918H73.0168L76.0653 0.925293H81.4794L79.1625 14.0946Z" fill="black"/>
<path d="M63.7574 1.08545L62.0503 10.8161C62.0015 11.0763 61.9771 11.3445 61.9771 11.6209C61.9771 12.1737 62.1234 12.6127 62.4161 12.9378C62.7087 13.2468 63.1721 13.4012 63.8062 13.4012C64.5866 13.4012 65.2044 13.1736 65.6596 12.7184C66.1149 12.2469 66.4156 11.6128 66.562 10.8161L68.2691 1.08545H73.6588L71.9516 10.8161C71.659 12.507 71.0737 13.9296 70.1957 15.084C69.334 16.2383 68.2691 17.1 67.0009 17.6691C65.749 18.2381 64.3671 18.5226 62.855 18.5226C60.9203 18.5226 59.3757 18.0186 58.2214 17.0106C57.067 15.9863 56.4899 14.5312 56.4899 12.6452C56.4899 12.0436 56.5468 11.4339 56.6606 10.8161L58.3677 1.08545H63.7574Z" fill="black"/>
<path d="M54.7671 4.98927C53.7127 3.36138 52.1577 2.12042 50.3365 1.4535C48.5153 0.786575 46.5266 0.729853 44.6703 1.29188C42.8141 1.85391 41.1908 3.00422 40.0454 4.56936C38.9 6.1345 38.2945 8.0296 38.3202 9.96892C38.346 11.9082 39.0015 13.7866 40.188 15.3208C41.3745 16.855 43.0277 17.9619 44.8982 18.4745C46.7687 18.9871 48.7552 18.8777 50.5581 18.1627C52.361 17.4477 53.8825 16.1659 54.8933 14.5107L50.5189 11.8394C50.0875 12.5459 49.4381 13.093 48.6686 13.3982C47.8991 13.7033 47.0512 13.75 46.2529 13.5312C45.4545 13.3125 44.7489 12.84 44.2425 12.1852C43.7361 11.5304 43.4563 10.7287 43.4453 9.90095C43.4343 9.07323 43.6928 8.26437 44.1816 7.59635C44.6705 6.92833 45.3633 6.43736 46.1556 6.19748C46.9479 5.9576 47.7967 5.98181 48.574 6.26646C49.3513 6.55111 50.015 7.08077 50.465 7.77557L54.7671 4.98927Z" fill="black"/>
<path d="M38.6348 1.08545L37.8788 5.37768H33.2939L31.0015 18.3519H25.5874L27.8799 5.37768H23.3438L24.0998 1.08545H38.6348Z" fill="black"/>
<path d="M22.6299 1.08545L19.5814 18.3519H14.1674L17.2158 1.08545H22.6299Z" fill="black"/>
<path d="M15.5853 0.873535L14.8192 5.2183H7.94902L7.52891 7.63755L14.3659 7.63755L13.6245 11.7601L6.78752 11.7601L5.62602 18.3514H0.139771L3.22887 0.873535H15.5853Z" fill="black"/>
</svg>
