<svg width="18" height="18" viewBox="0 0 18 18" fill="none" xmlns="http://www.w3.org/2000/svg">
<path d="M13.8325 7.90838C13.9094 8.25565 13.95 8.61662 13.95 8.98708C13.95 11.7248 11.7338 13.9442 9 13.9442C6.26619 13.9442 4.05 11.7248 4.05 8.98708C4.05 6.48264 5.90459 4.41197 8.31347 4.07727V0C3.66365 0.351231 0 4.2407 0 8.98708C0 13.9648 4.02944 18 9 18C13.9706 18 18 13.9648 18 8.98708C18 8.17937 17.8939 7.39647 17.6949 6.6516L13.8325 7.90838Z" fill="white"/>
<path d="M17.239 5.35421L13.3491 6.61991C12.9991 5.97503 12.5086 5.41256 11.9095 4.9767C11.2504 4.49716 10.4864 4.19005 9.68649 4.07787V0.00041364C11.3436 0.12735 12.9383 0.711932 14.2901 1.69548L15.2037 2.45744C15.3015 2.55063 15.3971 2.64593 15.4905 2.74326C16.2158 3.49924 16.8107 4.38165 17.239 5.35421Z" fill="#26CBFF"/>
</svg>
