<svg width="157" height="18" viewBox="0 0 157 18" fill="none" xmlns="http://www.w3.org/2000/svg">
<path d="M151.154 0.292725C153.008 0.292725 154.414 0.707315 155.373 1.53649C156.332 2.36568 156.812 3.47125 156.812 4.85322C156.812 5.25968 156.78 5.62549 156.715 5.95066C156.503 7.12127 155.999 8.15368 155.202 9.04789C154.406 9.92585 153.373 10.5599 152.105 10.9501L154.69 17.5592H148.74L146.569 11.3647L145.472 17.5592H140.058L143.106 0.292725H151.154ZM147.203 7.75535H149.349C149.87 7.75535 150.276 7.64154 150.569 7.41392C150.878 7.17004 151.081 6.7961 151.179 6.29209C151.195 6.2108 151.203 6.10512 151.203 5.97505C151.203 5.61736 151.089 5.34097 150.861 5.14587C150.634 4.93451 150.301 4.82883 149.862 4.82883H147.715L147.203 7.75535Z" fill="black"/>
<path d="M129.301 17.7298C127.837 17.7298 126.553 17.429 125.447 16.8275C124.342 16.2259 123.488 15.3805 122.887 14.2912C122.285 13.1856 121.984 11.9256 121.984 10.5111C121.984 8.44626 122.407 6.62531 123.253 5.04825C124.114 3.45492 125.309 2.21928 126.838 1.34132C128.382 0.447107 130.154 0 132.154 0C133.65 0 134.95 0.300781 136.056 0.902343C137.178 1.48765 138.04 2.32496 138.641 3.41427C139.243 4.48733 139.543 5.7311 139.543 7.14558C139.543 9.19415 139.113 11.0232 138.251 12.6328C137.406 14.2424 136.202 15.4943 134.642 16.3885C133.097 17.2827 131.317 17.7298 129.301 17.7298ZM130.13 12.6816C130.975 12.6816 131.707 12.4621 132.325 12.0231C132.959 11.5679 133.438 10.9744 133.764 10.2428C134.089 9.49493 134.251 8.69013 134.251 7.82844C134.251 6.93422 134.007 6.24324 133.52 5.75549C133.048 5.25147 132.365 4.99947 131.471 4.99947C130.626 4.99947 129.886 5.21896 129.252 5.65794C128.618 6.09691 128.13 6.69035 127.789 7.43823C127.463 8.16986 127.301 8.96653 127.301 9.82823C127.301 10.7224 127.537 11.4216 128.008 11.9256C128.496 12.4296 129.203 12.6816 130.13 12.6816Z" fill="black"/>
<path d="M122.418 0.292725L121.662 4.58495H117.077L114.785 17.5592H109.371L111.663 4.58495H107.127L107.883 0.292725H122.418Z" fill="black"/>
<path d="M99.5107 14.9497H93.7552L92.4382 17.5592H86.7559L96.1208 0.292725H102.364L105.608 17.5592H99.9009L99.5107 14.9497ZM98.9254 10.877L98.2181 6.0726L95.8037 10.877H98.9254Z" fill="black"/>
<path d="M79.0228 13.3023H86.3705L85.6389 17.3994H72.8771L75.9255 0.132935H81.3396L79.0228 13.3023Z" fill="black"/>
<path d="M63.6176 0.292725L61.9105 10.0234C61.8617 10.2835 61.8373 10.5518 61.8373 10.8282C61.8373 11.381 61.9836 11.82 62.2763 12.1451C62.569 12.454 63.0323 12.6085 63.6664 12.6085C64.4468 12.6085 65.0646 12.3809 65.5199 11.9256C65.9751 11.4541 66.2759 10.8201 66.4222 10.0234L68.1293 0.292725H73.519L71.8119 10.0234C71.5192 11.7143 70.9339 13.1369 70.056 14.2912C69.1943 15.4456 68.1293 16.3073 66.8612 16.8763C65.6093 17.4454 64.2273 17.7299 62.7153 17.7299C60.7805 17.7299 59.236 17.2259 58.0816 16.2179C56.9273 15.1936 56.3501 13.7385 56.3501 11.8525C56.3501 11.2509 56.407 10.6412 56.5208 10.0234L58.2279 0.292725H63.6176Z" fill="black"/>
<path d="M54.6272 4.19678C53.5729 2.5689 52.0179 1.32794 50.1967 0.661018C48.3754 -0.00590515 46.3868 -0.0626278 44.5305 0.499401C42.6742 1.06143 41.051 2.21174 39.9056 3.77688C38.7602 5.34202 38.1547 7.23712 38.1804 9.17644C38.2061 11.1158 38.8617 12.9941 40.0482 14.5284C41.2347 16.0626 42.8879 17.1694 44.7584 17.682C46.6289 18.1946 48.6154 18.0852 50.4183 17.3702C52.2212 16.6552 53.7427 15.3734 54.7535 13.7182L50.3791 11.0469C49.9477 11.7534 49.2982 12.3005 48.5288 12.6057C47.7593 12.9108 46.9114 12.9575 46.113 12.7388C45.3147 12.52 44.6091 12.0476 44.1027 11.3927C43.5963 10.7379 43.3165 9.9362 43.3055 9.10847C43.2945 8.28075 43.5529 7.47189 44.0418 6.80387C44.5307 6.13585 45.2235 5.64488 46.0158 5.405C46.8081 5.16512 47.6569 5.18933 48.4342 5.47398C49.2115 5.75863 49.8752 6.28829 50.3252 6.98309L54.6272 4.19678Z" fill="black"/>
<path d="M38.495 0.292725L37.739 4.58495H33.1541L30.8616 17.5592H25.4476L27.74 4.58495H23.2039L23.9599 0.292725H38.495Z" fill="black"/>
<path d="M22.4901 0.292725L19.4416 17.5592H14.0276L17.076 0.292725H22.4901Z" fill="black"/>
<path d="M15.4455 0.0811768L14.6794 4.42594H7.80925L7.38914 6.84519L14.2261 6.84519L13.4847 10.9678L6.64775 10.9678L5.48625 17.559H0L3.0891 0.0811768H15.4455Z" fill="black"/>
</svg>
